<svg id="Layer_1" data-name="Layer 1" xmlns="http://www.w3.org/2000/svg" viewBox="0 0 509.06 509.06"><defs><style>.cls-1{fill:#fff;stroke:#362222;stroke-miterlimit:10;stroke-width:7px;}.cls-2{fill:#362222;}</style></defs><circle class="cls-1" cx="254.53" cy="254.53" r="251.03"/><path id="path_2" data-name="path 2" class="cls-2" d="M262.82,407a13.47,13.47,0,0,0,13.47-13.47V218.47a13.47,13.47,0,0,0-26.94,0v175.1A13.47,13.47,0,0,0,262.82,407Zm67.35,0a13.48,13.48,0,0,0,13.47-13.47V218.47a13.47,13.47,0,1,0-26.94,0v175.1A13.47,13.47,0,0,0,330.17,407Zm-134.7,0a13.47,13.47,0,0,0,13.47-13.47V218.47a13.47,13.47,0,0,0-26.94,0v175.1A13.47,13.47,0,0,0,195.47,407Z" transform="translate(-1.51 -1.85)"/><path id="path_1" data-name="path 1" class="cls-2" d="M379.72,121.68H318.28V110.51A33.54,33.54,0,0,0,284.77,77H240.09a33.54,33.54,0,0,0-33.51,33.51v11.17H145.14a28,28,0,0,0-27.93,27.93V188.7a11.18,11.18,0,0,0,11.17,11.17h6.11l9.65,202.67a33.46,33.46,0,0,0,33.47,31.91H347.25a33.47,33.47,0,0,0,33.47-31.91l9.65-202.67h6.1a11.17,11.17,0,0,0,11.17-11.17V149.61A28,28,0,0,0,379.72,121.68Zm-150.8-11.17a11.18,11.18,0,0,1,11.17-11.17h44.68a11.18,11.18,0,0,1,11.17,11.17v11.17h-67Zm-89.37,39.1a5.6,5.6,0,0,1,5.59-5.59H379.72a5.59,5.59,0,0,1,5.58,5.59v27.92H139.55ZM358.4,401.47a11.15,11.15,0,0,1-11.15,10.64H177.61a11.15,11.15,0,0,1-11.15-10.64l-9.61-201.6H368Z" transform="translate(-1.51 -1.85)"/></svg>