<svg id="Layer_1" data-name="Layer 1" xmlns="http://www.w3.org/2000/svg" viewBox="0 0 528.46 521.46"><defs><style>.cls-1{fill:#fff;stroke:#362222;stroke-miterlimit:10;stroke-width:14.96px;}</style></defs><path id="path" class="cls-1" d="M493.61,160.48q-20.39-46.83-54.82-80.79T356.88,25.61A256.56,256.56,0,0,0,162.15,23.8,259.82,259.82,0,0,0,80.41,75.41L36.94,32.86q-10-10.21-23.07-4.62Q.5,33.85.5,47.7V195.44a20.18,20.18,0,0,0,6.35,14.84,20.75,20.75,0,0,0,15.05,6.26H171.67q14.06,0,19.73-13.19,5.67-12.85-4.68-22.75l-45.81-45.51a166.61,166.61,0,0,1,53.5-33.47,171.89,171.89,0,0,1,62.85-11.71,168.8,168.8,0,0,1,66.36,13.36,172.6,172.6,0,0,1,54.66,36.11,169.86,169.86,0,0,1,36.61,53.91,165.12,165.12,0,0,1,0,130.92,170.08,170.08,0,0,1-36.61,53.91,172.6,172.6,0,0,1-54.66,36.11,168.8,168.8,0,0,1-66.36,13.36A170.55,170.55,0,0,1,182,410.44,167.21,167.21,0,0,1,122.19,362c-1.55-2.19-4.12-3.52-7.69-4a12.13,12.13,0,0,0-8.36,3l-45.8,45.51a9.72,9.72,0,0,0-2.84,6.76,11.67,11.67,0,0,0,2.18,7.42,250.48,250.48,0,0,0,88.26,67.43A257.88,257.88,0,0,0,257.26,512a252.75,252.75,0,0,0,99.62-20.12q47.47-20.1,81.91-54.07T493.61,357a247,247,0,0,0,0-196.53Z" transform="translate(6.98 1.98)"/></svg>