<svg id="Layer_1" data-name="Layer 1" xmlns="http://www.w3.org/2000/svg" viewBox="0 0 512 510.73"><defs><style>.cls-1{fill:#362222;}</style></defs><path id="path" class="cls-1" d="M491.67,156.55Q471.35,109.33,437,75.08T355.34,20.55a253.19,253.19,0,0,0-194.17-1.83,258.7,258.7,0,0,0-81.49,52L36.34,27.86q-10-10.3-23-4.66Q0,28.87,0,42.83v149a20.43,20.43,0,0,0,6.33,15,20.57,20.57,0,0,0,15,6.32H170.67q14,0,19.67-13.31,5.67-13-4.67-22.94L140,130.94a165.75,165.75,0,0,1,53.34-33.75A169.63,169.63,0,0,1,256,85.39a166.69,166.69,0,0,1,66.16,13.46,168.95,168.95,0,0,1,91,90.78,168.22,168.22,0,0,1,0,132,168.95,168.95,0,0,1-91,90.78A166.69,166.69,0,0,1,256,425.88a169,169,0,0,1-134.67-66.17c-1.56-2.22-4.11-3.55-7.67-4a12,12,0,0,0-8.33,3L59.67,404.59a9.83,9.83,0,0,0-2.83,6.82A11.85,11.85,0,0,0,59,418.9a250.08,250.08,0,0,0,88,68A254.75,254.75,0,0,0,256,511a249.62,249.62,0,0,0,99.33-20.28q47.34-20.28,81.67-54.53t54.66-81.47a251.63,251.63,0,0,0,0-198.17Z" transform="translate(0 -0.27)"/></svg>